<svg width="16" height="14" viewBox="0 0 16 14" fill="none" xmlns="http://www.w3.org/2000/svg">
<g clip-path="url(#clip0_27_18)">
<path d="M14.2243 4.63953H11.0065C10.9954 4.70898 10.9889 4.72812 10.9889 4.77078C10.9889 5.05832 11.2553 5.29906 11.584 5.29906H12.0203V5.64619C12.0203 5.93373 12.2868 6.16687 12.6154 6.16687C12.944 6.16687 13.2105 5.93373 13.2105 5.64619V5.29906H13.6468C13.9755 5.29906 14.2419 5.05832 14.2419 4.77078C14.2419 4.72809 14.2354 4.70895 14.2243 4.63953Z" fill="#BEAD8E"/>
<path d="M11.9735 0.369995H0V3.94535H14.8766V2.8909C14.8766 1.4988 13.5645 0.369995 11.9735 0.369995ZM3.70841 2.75308C3.36294 2.75308 3.08288 2.50803 3.08288 2.20572C3.08288 1.90341 3.36294 1.65838 3.70841 1.65838C4.05388 1.65838 4.33394 1.90346 4.33394 2.20572C4.33394 2.50798 4.05391 2.75308 3.70841 2.75308ZM5.91006 2.75308C5.56459 2.75308 5.28453 2.50803 5.28453 2.20572C5.28453 1.90341 5.56459 1.65838 5.91006 1.65838C6.25556 1.65838 6.53563 1.90346 6.53563 2.20572C6.53563 2.50798 6.25556 2.75308 5.91006 2.75308ZM8.11169 2.75308C7.76622 2.75308 7.48616 2.50803 7.48616 2.20572C7.48616 1.90341 7.76625 1.65838 8.11169 1.65838C8.45713 1.65838 8.73722 1.90346 8.73722 2.20572C8.73722 2.50798 8.45719 2.75308 8.11169 2.75308Z" fill="#BEAD8E"/>
<path d="M0.674377 4.32715V4.65475V5.61148H4.52247V4.65475V4.32715H0.674377Z" fill="#BEAD8E"/>
<path d="M14.7746 11.4779H14.5593V11.2178C14.7973 11.1337 14.9163 10.9556 14.9163 10.7489V9.22159C14.9163 9.01487 14.7973 8.83686 14.5593 8.75278V7.89019C14.5593 7.60265 14.3124 7.38184 13.9838 7.38184H11.0327C10.7041 7.38184 10.4335 7.60262 10.4335 7.89019V11.4779H6.40745C5.35748 11.4779 4.52252 10.7445 4.52252 9.8258V6.30579H0.674423V10.4969L0.0396729 11.4893V13.6301H14.7746C15.4514 13.6301 16 13.1462 16 12.554C16 11.9618 15.4514 11.4779 14.7746 11.4779Z" fill="#BEAD8E"/>
</g>
<defs>
<clipPath id="clip0_27_18">
<rect width="16" height="14" fill="white"/>
</clipPath>
</defs>
</svg>
