<svg width="16" height="14" viewBox="0 0 16 14" fill="none" xmlns="http://www.w3.org/2000/svg">
<path fill-rule="evenodd" clip-rule="evenodd" d="M1.33333 5.93291V3.5C1.33333 2.5335 2.22877 1.75 3.33333 1.75H12.6667C13.7713 1.75 14.6667 2.5335 14.6667 3.5V5.93291C15.4435 6.17312 16 6.82138 16 7.58333V11.6667C16 11.9888 15.7015 12.25 15.3333 12.25C14.9651 12.25 14.6667 11.9888 14.6667 11.6667V11.0833H1.33333V11.6667C1.33333 11.9888 1.03485 12.25 0.666667 12.25C0.298477 12.25 0 11.9888 0 11.6667V7.58333C0 6.82138 0.556539 6.17312 1.33333 5.93291ZM2.66667 3.5C2.66667 3.17784 2.96515 2.91667 3.33333 2.91667H12.6667C13.0349 2.91667 13.3333 3.17784 13.3333 3.5V5.83333H12.6667V5.25C12.6667 4.2835 11.7713 3.5 10.6667 3.5H9.33333C8.82107 3.5 8.35387 3.6685 8 3.94561C7.64613 3.6685 7.17893 3.5 6.66667 3.5H5.33333C4.22877 3.5 3.33333 4.2835 3.33333 5.25V5.83333H2.66667V3.5ZM11.3333 5.83333V5.25C11.3333 4.92784 11.0349 4.66667 10.6667 4.66667H9.33333C8.96513 4.66667 8.66667 4.92784 8.66667 5.25V5.83333H11.3333ZM7.33333 5.83333V5.25C7.33333 4.92784 7.03487 4.66667 6.66667 4.66667H5.33333C4.96515 4.66667 4.66667 4.92784 4.66667 5.25V5.83333H7.33333ZM14 7C14.3682 7 14.6667 7.26116 14.6667 7.58333V9.91667H1.33333V7.58333C1.33333 7.26116 1.63181 7 2 7H14Z" fill="#BEAD8E"/>
</svg>
