<svg width="16" height="15" viewBox="0 0 16 15" fill="none" xmlns="http://www.w3.org/2000/svg">
<g clip-path="url(#clip0_26_9)">
<path d="M15.6364 9.375H8H0.363636C0.162545 9.375 0 9.52773 0 9.71591V13.125V13.4659V14.8295H0.727273V13.8068H8H15.2727V14.8295H16V13.4659V13.125V9.71591C16 9.52773 15.8375 9.375 15.6364 9.375ZM0.727273 10.0568H7.63636V13.125H0.727273V10.0568ZM8.36364 13.125V10.0568H15.2727V13.125H8.36364Z" fill="#BEAD8E"/>
<path d="M13.0909 11.4205H10.9091V12.1023H13.0909V11.4205Z" fill="#BEAD8E"/>
<path d="M5.09094 11.4205H2.90912V12.1023H5.09094V11.4205Z" fill="#BEAD8E"/>
<path d="M1.81817 7.67047H7.63635V8.35229H6.1818V9.03411H9.81817V8.35229H8.36362V7.67047H14.1818C14.3829 7.67047 14.5454 7.51774 14.5454 7.32956V0.51138C14.5454 0.323198 14.3829 0.170471 14.1818 0.170471H1.81817C1.61707 0.170471 1.45453 0.323198 1.45453 0.51138V7.32956C1.45453 7.51774 1.61707 7.67047 1.81817 7.67047ZM2.1818 0.852289H13.8182V6.98865H8.36362H7.63635H2.1818V0.852289Z" fill="#BEAD8E"/>
</g>
<defs>
<clipPath id="clip0_26_9">
<rect width="16" height="15" fill="white"/>
</clipPath>
</defs>
</svg>
